<mxfile host="Electron" modified="2023-12-01T09:55:52.392Z" agent="Mozilla/5.0 (Windows NT 10.0; Win64; x64) AppleWebKit/537.36 (KHTML, like Gecko) draw.io/22.0.2 Chrome/114.0.5735.289 Electron/25.8.4 Safari/537.36" etag="HBTm9br_v5i4BZ0SvCTE" version="22.0.2" type="device">
  <diagram name="Page-1" id="2YBvvXClWsGukQMizWep">
    <mxGraphModel dx="2800" dy="2360" grid="1" gridSize="10" guides="1" tooltips="1" connect="1" arrows="1" fold="1" page="1" pageScale="1" pageWidth="850" pageHeight="1100" math="0" shadow="0">
      <root>
        <mxCell id="0" />
        <mxCell id="1" parent="0" />
        <mxCell id="1e91aIiLgdulqI0LddCd-154" style="edgeStyle=orthogonalEdgeStyle;rounded=0;orthogonalLoop=1;jettySize=auto;html=1;" parent="1" source="8j5bAUQHdlB80DdxA1oL-2" target="1e91aIiLgdulqI0LddCd-18" edge="1">
          <mxGeometry relative="1" as="geometry" />
        </mxCell>
        <mxCell id="8j5bAUQHdlB80DdxA1oL-2" value="Audioprocessor" style="rounded=0;whiteSpace=wrap;html=1;labelBackgroundColor=none;" parent="1" vertex="1">
          <mxGeometry x="330" y="180" width="120" height="60" as="geometry" />
        </mxCell>
        <mxCell id="1e91aIiLgdulqI0LddCd-110" style="edgeStyle=orthogonalEdgeStyle;rounded=0;orthogonalLoop=1;jettySize=auto;html=1;entryX=0.25;entryY=0;entryDx=0;entryDy=0;" parent="1" source="1e91aIiLgdulqI0LddCd-3" target="8j5bAUQHdlB80DdxA1oL-2" edge="1">
          <mxGeometry relative="1" as="geometry">
            <Array as="points">
              <mxPoint x="360" y="150" />
            </Array>
          </mxGeometry>
        </mxCell>
        <mxCell id="1e91aIiLgdulqI0LddCd-3" value="Audio file" style="shape=cylinder3;whiteSpace=wrap;html=1;boundedLbl=1;backgroundOutline=1;size=15;" parent="1" vertex="1">
          <mxGeometry x="189" y="90" width="90" height="100" as="geometry" />
        </mxCell>
        <mxCell id="1e91aIiLgdulqI0LddCd-156" style="edgeStyle=orthogonalEdgeStyle;rounded=0;orthogonalLoop=1;jettySize=auto;html=1;entryX=0.5;entryY=0;entryDx=0;entryDy=0;" parent="1" source="1e91aIiLgdulqI0LddCd-18" target="1e91aIiLgdulqI0LddCd-19" edge="1">
          <mxGeometry relative="1" as="geometry" />
        </mxCell>
        <mxCell id="1e91aIiLgdulqI0LddCd-163" style="edgeStyle=orthogonalEdgeStyle;rounded=0;orthogonalLoop=1;jettySize=auto;html=1;entryX=1;entryY=0.5;entryDx=0;entryDy=0;" parent="1" source="1e91aIiLgdulqI0LddCd-18" target="1e91aIiLgdulqI0LddCd-33" edge="1">
          <mxGeometry relative="1" as="geometry" />
        </mxCell>
        <mxCell id="1e91aIiLgdulqI0LddCd-18" value="Spectrum&lt;br&gt;Onsets&lt;br&gt;Tempo&lt;br&gt;Duration&lt;br&gt;Frame count&lt;br&gt;Frame duration" style="text;html=1;strokeColor=none;fillColor=none;align=center;verticalAlign=middle;whiteSpace=wrap;rounded=0;fontStyle=0" parent="1" vertex="1">
          <mxGeometry x="345" y="288.5" width="90" height="95" as="geometry" />
        </mxCell>
        <mxCell id="1e91aIiLgdulqI0LddCd-111" style="edgeStyle=orthogonalEdgeStyle;rounded=0;orthogonalLoop=1;jettySize=auto;html=1;" parent="1" target="1e91aIiLgdulqI0LddCd-112" edge="1">
          <mxGeometry relative="1" as="geometry">
            <mxPoint x="500" y="457.0000000000002" as="targetPoint" />
            <mxPoint x="450" y="457" as="sourcePoint" />
          </mxGeometry>
        </mxCell>
        <mxCell id="1e91aIiLgdulqI0LddCd-122" style="edgeStyle=orthogonalEdgeStyle;rounded=0;orthogonalLoop=1;jettySize=auto;html=1;entryX=0.5;entryY=0;entryDx=0;entryDy=0;" parent="1" target="1e91aIiLgdulqI0LddCd-121" edge="1">
          <mxGeometry relative="1" as="geometry">
            <mxPoint x="390" y="487" as="sourcePoint" />
          </mxGeometry>
        </mxCell>
        <mxCell id="1e91aIiLgdulqI0LddCd-19" value="NoteGenerator" style="rounded=0;whiteSpace=wrap;html=1;labelBackgroundColor=none;" parent="1" vertex="1">
          <mxGeometry x="330" y="427" width="120" height="60" as="geometry" />
        </mxCell>
        <mxCell id="1e91aIiLgdulqI0LddCd-28" style="edgeStyle=orthogonalEdgeStyle;rounded=0;orthogonalLoop=1;jettySize=auto;html=1;entryX=0.5;entryY=0;entryDx=0;entryDy=0;" parent="1" source="1e91aIiLgdulqI0LddCd-27" target="8j5bAUQHdlB80DdxA1oL-2" edge="1">
          <mxGeometry relative="1" as="geometry" />
        </mxCell>
        <mxCell id="1e91aIiLgdulqI0LddCd-27" value="&lt;span style=&quot;font-weight: normal;&quot;&gt;Transcription&lt;/span&gt;" style="shape=offPageConnector;whiteSpace=wrap;html=1;fontStyle=1" parent="1" vertex="1">
          <mxGeometry x="345" y="28" width="90" height="90" as="geometry" />
        </mxCell>
        <mxCell id="1e91aIiLgdulqI0LddCd-35" style="edgeStyle=orthogonalEdgeStyle;rounded=0;orthogonalLoop=1;jettySize=auto;html=1;entryX=0.5;entryY=0;entryDx=0;entryDy=0;exitX=0.974;exitY=0.362;exitDx=0;exitDy=0;exitPerimeter=0;" parent="1" source="1e91aIiLgdulqI0LddCd-37" target="1e91aIiLgdulqI0LddCd-33" edge="1">
          <mxGeometry relative="1" as="geometry">
            <mxPoint x="69" y="227.47826086956525" as="sourcePoint" />
          </mxGeometry>
        </mxCell>
        <mxCell id="1e91aIiLgdulqI0LddCd-46" style="edgeStyle=orthogonalEdgeStyle;rounded=0;orthogonalLoop=1;jettySize=auto;html=1;entryX=0.5;entryY=0;entryDx=0;entryDy=0;" parent="1" source="1e91aIiLgdulqI0LddCd-33" target="1e91aIiLgdulqI0LddCd-45" edge="1">
          <mxGeometry relative="1" as="geometry" />
        </mxCell>
        <mxCell id="1e91aIiLgdulqI0LddCd-161" style="edgeStyle=orthogonalEdgeStyle;rounded=0;orthogonalLoop=1;jettySize=auto;html=1;entryX=0;entryY=0.5;entryDx=0;entryDy=0;" parent="1" target="8j5bAUQHdlB80DdxA1oL-2" edge="1">
          <mxGeometry relative="1" as="geometry">
            <mxPoint x="330" y="190" as="targetPoint" />
            <mxPoint x="10" y="315" as="sourcePoint" />
            <Array as="points">
              <mxPoint x="210" y="315" />
              <mxPoint x="210" y="210" />
            </Array>
          </mxGeometry>
        </mxCell>
        <mxCell id="1e91aIiLgdulqI0LddCd-33" value="TrainingDataProcessor" style="rounded=0;whiteSpace=wrap;html=1;" parent="1" vertex="1">
          <mxGeometry x="-21" y="301" width="140" height="70" as="geometry" />
        </mxCell>
        <mxCell id="1e91aIiLgdulqI0LddCd-70" style="edgeStyle=orthogonalEdgeStyle;rounded=0;orthogonalLoop=1;jettySize=auto;html=1;" parent="1" source="1e91aIiLgdulqI0LddCd-37" target="1e91aIiLgdulqI0LddCd-63" edge="1">
          <mxGeometry relative="1" as="geometry" />
        </mxCell>
        <mxCell id="1e91aIiLgdulqI0LddCd-37" value="Training" style="shape=offPageConnector;whiteSpace=wrap;html=1;" parent="1" vertex="1">
          <mxGeometry x="-161" y="180" width="80" height="80" as="geometry" />
        </mxCell>
        <mxCell id="1e91aIiLgdulqI0LddCd-43" style="edgeStyle=orthogonalEdgeStyle;rounded=0;orthogonalLoop=1;jettySize=auto;html=1;entryX=1;entryY=0.75;entryDx=0;entryDy=0;" parent="1" source="1e91aIiLgdulqI0LddCd-41" target="1e91aIiLgdulqI0LddCd-33" edge="1">
          <mxGeometry relative="1" as="geometry" />
        </mxCell>
        <mxCell id="1e91aIiLgdulqI0LddCd-41" value="MIDI file" style="shape=cylinder3;whiteSpace=wrap;html=1;boundedLbl=1;backgroundOutline=1;size=15;" parent="1" vertex="1">
          <mxGeometry x="189" y="350" width="90" height="100" as="geometry" />
        </mxCell>
        <mxCell id="1e91aIiLgdulqI0LddCd-53" style="edgeStyle=orthogonalEdgeStyle;rounded=0;orthogonalLoop=1;jettySize=auto;html=1;entryX=0.5;entryY=0;entryDx=0;entryDy=0;" parent="1" source="1e91aIiLgdulqI0LddCd-45" target="1e91aIiLgdulqI0LddCd-49" edge="1">
          <mxGeometry relative="1" as="geometry" />
        </mxCell>
        <mxCell id="1e91aIiLgdulqI0LddCd-45" value="One hot encoded labels&lt;br&gt;Spectrum columns" style="text;strokeColor=none;fillColor=none;align=center;verticalAlign=middle;whiteSpace=wrap;rounded=0;html=1;" parent="1" vertex="1">
          <mxGeometry x="-16" y="430" width="130" height="30" as="geometry" />
        </mxCell>
        <mxCell id="1e91aIiLgdulqI0LddCd-49" value="SpectrumCompressor" style="rounded=0;whiteSpace=wrap;html=1;" parent="1" vertex="1">
          <mxGeometry x="-21" y="502" width="140" height="70" as="geometry" />
        </mxCell>
        <mxCell id="1e91aIiLgdulqI0LddCd-89" style="edgeStyle=orthogonalEdgeStyle;rounded=0;orthogonalLoop=1;jettySize=auto;html=1;entryX=1;entryY=0.5;entryDx=0;entryDy=0;" parent="1" source="1e91aIiLgdulqI0LddCd-58" target="1e91aIiLgdulqI0LddCd-63" edge="1">
          <mxGeometry relative="1" as="geometry">
            <Array as="points">
              <mxPoint x="-126" y="335" />
            </Array>
          </mxGeometry>
        </mxCell>
        <mxCell id="1e91aIiLgdulqI0LddCd-58" value="Compressed spectrum data (.csd)" style="shape=cylinder3;whiteSpace=wrap;html=1;boundedLbl=1;backgroundOutline=1;size=15;" parent="1" vertex="1">
          <mxGeometry x="-180" y="487" width="90" height="100" as="geometry" />
        </mxCell>
        <mxCell id="1e91aIiLgdulqI0LddCd-93" style="edgeStyle=orthogonalEdgeStyle;rounded=0;orthogonalLoop=1;jettySize=auto;html=1;entryX=0.5;entryY=1;entryDx=0;entryDy=0;entryPerimeter=0;" parent="1" target="1e91aIiLgdulqI0LddCd-91" edge="1">
          <mxGeometry relative="1" as="geometry">
            <mxPoint x="255" y="585" as="targetPoint" />
            <mxPoint x="-249.99999999999977" y="370" as="sourcePoint" />
            <Array as="points">
              <mxPoint x="-260" y="370" />
              <mxPoint x="-260" y="630" />
              <mxPoint x="234" y="630" />
            </Array>
          </mxGeometry>
        </mxCell>
        <mxCell id="1e91aIiLgdulqI0LddCd-63" value="Trainer" style="rounded=0;whiteSpace=wrap;html=1;" parent="1" vertex="1">
          <mxGeometry x="-329" y="300" width="140" height="70" as="geometry" />
        </mxCell>
        <mxCell id="1e91aIiLgdulqI0LddCd-160" style="edgeStyle=orthogonalEdgeStyle;rounded=0;orthogonalLoop=1;jettySize=auto;html=1;entryX=0;entryY=0.5;entryDx=0;entryDy=0;" parent="1" source="1e91aIiLgdulqI0LddCd-91" target="1e91aIiLgdulqI0LddCd-19" edge="1">
          <mxGeometry relative="1" as="geometry" />
        </mxCell>
        <mxCell id="1e91aIiLgdulqI0LddCd-91" value="Model (.mdl)" style="shape=cylinder3;whiteSpace=wrap;html=1;boundedLbl=1;backgroundOutline=1;size=15;" parent="1" vertex="1">
          <mxGeometry x="189" y="487" width="90" height="100" as="geometry" />
        </mxCell>
        <mxCell id="1e91aIiLgdulqI0LddCd-102" style="edgeStyle=orthogonalEdgeStyle;rounded=0;orthogonalLoop=1;jettySize=auto;html=1;" parent="1" source="1e91aIiLgdulqI0LddCd-95" target="8j5bAUQHdlB80DdxA1oL-2" edge="1">
          <mxGeometry relative="1" as="geometry" />
        </mxCell>
        <mxCell id="1e91aIiLgdulqI0LddCd-95" value="Librosa" style="ellipse;shape=cloud;whiteSpace=wrap;html=1;" parent="1" vertex="1">
          <mxGeometry x="520" y="170" width="120" height="80" as="geometry" />
        </mxCell>
        <mxCell id="1e91aIiLgdulqI0LddCd-99" style="edgeStyle=orthogonalEdgeStyle;rounded=0;orthogonalLoop=1;jettySize=auto;html=1;entryX=0;entryY=0.5;entryDx=0;entryDy=0;" parent="1" source="1e91aIiLgdulqI0LddCd-98" target="1e91aIiLgdulqI0LddCd-63" edge="1">
          <mxGeometry relative="1" as="geometry" />
        </mxCell>
        <mxCell id="1e91aIiLgdulqI0LddCd-98" value="PyTorch" style="ellipse;shape=cloud;whiteSpace=wrap;html=1;" parent="1" vertex="1">
          <mxGeometry x="-509" y="295" width="120" height="80" as="geometry" />
        </mxCell>
        <mxCell id="1e91aIiLgdulqI0LddCd-164" style="edgeStyle=orthogonalEdgeStyle;rounded=0;orthogonalLoop=1;jettySize=auto;html=1;entryX=0.75;entryY=0;entryDx=0;entryDy=0;exitX=0.25;exitY=0;exitDx=0;exitDy=0;" parent="1" source="1e91aIiLgdulqI0LddCd-105" target="8j5bAUQHdlB80DdxA1oL-2" edge="1">
          <mxGeometry relative="1" as="geometry">
            <mxPoint x="425" y="172.5" as="targetPoint" />
            <mxPoint x="800" y="310" as="sourcePoint" />
            <Array as="points">
              <mxPoint x="800" y="270" />
              <mxPoint x="750" y="270" />
              <mxPoint x="750" y="150" />
              <mxPoint x="420" y="150" />
            </Array>
          </mxGeometry>
        </mxCell>
        <mxCell id="1e91aIiLgdulqI0LddCd-105" value="Tester" style="rounded=0;whiteSpace=wrap;html=1;labelBackgroundColor=none;" parent="1" vertex="1">
          <mxGeometry x="770" y="300" width="120" height="60" as="geometry" />
        </mxCell>
        <mxCell id="1e91aIiLgdulqI0LddCd-108" value="" style="edgeStyle=orthogonalEdgeStyle;rounded=0;orthogonalLoop=1;jettySize=auto;html=1;" parent="1" source="1e91aIiLgdulqI0LddCd-107" target="1e91aIiLgdulqI0LddCd-105" edge="1">
          <mxGeometry relative="1" as="geometry" />
        </mxCell>
        <mxCell id="1e91aIiLgdulqI0LddCd-107" value="Testing" style="shape=offPageConnector;whiteSpace=wrap;html=1;" parent="1" vertex="1">
          <mxGeometry x="790" y="180" width="80" height="80" as="geometry" />
        </mxCell>
        <mxCell id="1e91aIiLgdulqI0LddCd-133" style="edgeStyle=orthogonalEdgeStyle;rounded=0;orthogonalLoop=1;jettySize=auto;html=1;" parent="1" source="1e91aIiLgdulqI0LddCd-112" target="1e91aIiLgdulqI0LddCd-132" edge="1">
          <mxGeometry relative="1" as="geometry" />
        </mxCell>
        <mxCell id="1e91aIiLgdulqI0LddCd-165" style="edgeStyle=orthogonalEdgeStyle;rounded=0;orthogonalLoop=1;jettySize=auto;html=1;entryX=0.25;entryY=1;entryDx=0;entryDy=0;" parent="1" source="1e91aIiLgdulqI0LddCd-112" target="1e91aIiLgdulqI0LddCd-105" edge="1">
          <mxGeometry relative="1" as="geometry" />
        </mxCell>
        <mxCell id="1e91aIiLgdulqI0LddCd-112" value="Notes&lt;br&gt;Tempo" style="text;html=1;strokeColor=none;fillColor=none;align=center;verticalAlign=middle;whiteSpace=wrap;rounded=0;" parent="1" vertex="1">
          <mxGeometry x="538" y="442.00000000000045" width="60" height="30" as="geometry" />
        </mxCell>
        <mxCell id="1e91aIiLgdulqI0LddCd-113" value="SheetMusicGenerator" style="rounded=0;whiteSpace=wrap;html=1;labelBackgroundColor=none;" parent="1" vertex="1">
          <mxGeometry x="503" y="709" width="130" height="60" as="geometry" />
        </mxCell>
        <mxCell id="1e91aIiLgdulqI0LddCd-118" style="edgeStyle=orthogonalEdgeStyle;rounded=0;orthogonalLoop=1;jettySize=auto;html=1;entryX=1;entryY=0.5;entryDx=0;entryDy=0;" parent="1" source="1e91aIiLgdulqI0LddCd-117" target="1e91aIiLgdulqI0LddCd-113" edge="1">
          <mxGeometry relative="1" as="geometry" />
        </mxCell>
        <mxCell id="1e91aIiLgdulqI0LddCd-117" value="MuseScore" style="ellipse;shape=cloud;whiteSpace=wrap;html=1;" parent="1" vertex="1">
          <mxGeometry x="688" y="699" width="120" height="80" as="geometry" />
        </mxCell>
        <mxCell id="1e91aIiLgdulqI0LddCd-138" style="edgeStyle=orthogonalEdgeStyle;rounded=0;orthogonalLoop=1;jettySize=auto;html=1;entryX=0.5;entryY=0;entryDx=0;entryDy=0;" parent="1" source="1e91aIiLgdulqI0LddCd-121" target="1e91aIiLgdulqI0LddCd-137" edge="1">
          <mxGeometry relative="1" as="geometry" />
        </mxCell>
        <mxCell id="1e91aIiLgdulqI0LddCd-121" value="MetadataProcessor" style="rounded=0;whiteSpace=wrap;html=1;labelBackgroundColor=none;" parent="1" vertex="1">
          <mxGeometry x="330" y="537" width="120" height="60" as="geometry" />
        </mxCell>
        <mxCell id="1e91aIiLgdulqI0LddCd-135" style="edgeStyle=orthogonalEdgeStyle;rounded=0;orthogonalLoop=1;jettySize=auto;html=1;entryX=0.5;entryY=0;entryDx=0;entryDy=0;entryPerimeter=0;" parent="1" source="1e91aIiLgdulqI0LddCd-132" target="1e91aIiLgdulqI0LddCd-142" edge="1">
          <mxGeometry relative="1" as="geometry">
            <mxPoint x="568" y="577.0000000000005" as="targetPoint" />
          </mxGeometry>
        </mxCell>
        <mxCell id="1e91aIiLgdulqI0LddCd-132" value="MIDIManager" style="rounded=0;whiteSpace=wrap;html=1;labelBackgroundColor=none;" parent="1" vertex="1">
          <mxGeometry x="503" y="492" width="130" height="60" as="geometry" />
        </mxCell>
        <mxCell id="1e91aIiLgdulqI0LddCd-139" style="edgeStyle=orthogonalEdgeStyle;rounded=0;orthogonalLoop=1;jettySize=auto;html=1;entryX=0;entryY=0.5;entryDx=0;entryDy=0;" parent="1" source="1e91aIiLgdulqI0LddCd-137" target="1e91aIiLgdulqI0LddCd-113" edge="1">
          <mxGeometry relative="1" as="geometry" />
        </mxCell>
        <mxCell id="1e91aIiLgdulqI0LddCd-170" style="edgeStyle=orthogonalEdgeStyle;rounded=0;orthogonalLoop=1;jettySize=auto;html=1;entryX=0.75;entryY=1;entryDx=0;entryDy=0;" parent="1" source="1e91aIiLgdulqI0LddCd-137" target="1e91aIiLgdulqI0LddCd-105" edge="1">
          <mxGeometry relative="1" as="geometry">
            <mxPoint x="430" y="1000" as="targetPoint" />
            <Array as="points">
              <mxPoint x="390" y="940" />
              <mxPoint x="860" y="940" />
            </Array>
          </mxGeometry>
        </mxCell>
        <mxCell id="1e91aIiLgdulqI0LddCd-137" value="Key&lt;br&gt;Time signature" style="text;html=1;strokeColor=none;fillColor=none;align=center;verticalAlign=middle;whiteSpace=wrap;rounded=0;" parent="1" vertex="1">
          <mxGeometry x="335" y="714" width="110" height="50" as="geometry" />
        </mxCell>
        <mxCell id="1e91aIiLgdulqI0LddCd-140" value="Sheet music (.pdf or .png)" style="shape=cylinder3;whiteSpace=wrap;html=1;boundedLbl=1;backgroundOutline=1;size=15;" parent="1" vertex="1">
          <mxGeometry x="520.5" y="809" width="95" height="110" as="geometry" />
        </mxCell>
        <mxCell id="1e91aIiLgdulqI0LddCd-141" style="edgeStyle=orthogonalEdgeStyle;rounded=0;orthogonalLoop=1;jettySize=auto;html=1;entryX=0.5;entryY=0;entryDx=0;entryDy=0;entryPerimeter=0;" parent="1" source="1e91aIiLgdulqI0LddCd-113" target="1e91aIiLgdulqI0LddCd-140" edge="1">
          <mxGeometry relative="1" as="geometry" />
        </mxCell>
        <mxCell id="1e91aIiLgdulqI0LddCd-159" style="edgeStyle=orthogonalEdgeStyle;rounded=0;orthogonalLoop=1;jettySize=auto;html=1;" parent="1" source="1e91aIiLgdulqI0LddCd-142" target="1e91aIiLgdulqI0LddCd-113" edge="1">
          <mxGeometry relative="1" as="geometry" />
        </mxCell>
        <mxCell id="1e91aIiLgdulqI0LddCd-142" value="MIDI" style="shape=cylinder3;whiteSpace=wrap;html=1;boundedLbl=1;backgroundOutline=1;size=15;" parent="1" vertex="1">
          <mxGeometry x="520.5" y="587" width="95" height="95" as="geometry" />
        </mxCell>
        <mxCell id="1e91aIiLgdulqI0LddCd-172" style="edgeStyle=orthogonalEdgeStyle;rounded=0;orthogonalLoop=1;jettySize=auto;html=1;entryX=0;entryY=0.5;entryDx=0;entryDy=0;" parent="1" source="1e91aIiLgdulqI0LddCd-145" target="1e91aIiLgdulqI0LddCd-105" edge="1">
          <mxGeometry relative="1" as="geometry">
            <mxPoint x="750" y="330" as="targetPoint" />
          </mxGeometry>
        </mxCell>
        <mxCell id="MsXNKxyrm7HTchD_hshc-1" value="" style="edgeStyle=orthogonalEdgeStyle;rounded=0;orthogonalLoop=1;jettySize=auto;html=1;" edge="1" parent="1" source="1e91aIiLgdulqI0LddCd-145" target="1e91aIiLgdulqI0LddCd-112">
          <mxGeometry relative="1" as="geometry" />
        </mxCell>
        <mxCell id="1e91aIiLgdulqI0LddCd-145" value="Tests (.csv)" style="shape=cylinder3;whiteSpace=wrap;html=1;boundedLbl=1;backgroundOutline=1;size=15;" parent="1" vertex="1">
          <mxGeometry x="528" y="295" width="80" height="70" as="geometry" />
        </mxCell>
        <mxCell id="1e91aIiLgdulqI0LddCd-166" value="Test results (.csv)" style="shape=cylinder3;whiteSpace=wrap;html=1;boundedLbl=1;backgroundOutline=1;size=15;" parent="1" vertex="1">
          <mxGeometry x="970" y="295" width="80" height="70" as="geometry" />
        </mxCell>
        <mxCell id="1e91aIiLgdulqI0LddCd-167" style="edgeStyle=orthogonalEdgeStyle;rounded=0;orthogonalLoop=1;jettySize=auto;html=1;entryX=0;entryY=0.5;entryDx=0;entryDy=0;entryPerimeter=0;" parent="1" source="1e91aIiLgdulqI0LddCd-105" target="1e91aIiLgdulqI0LddCd-166" edge="1">
          <mxGeometry relative="1" as="geometry" />
        </mxCell>
        <mxCell id="6PN_P6295LHwlHT6Q0YC-1" style="edgeStyle=orthogonalEdgeStyle;rounded=0;orthogonalLoop=1;jettySize=auto;html=1;entryX=1;entryY=0.5;entryDx=0;entryDy=0;entryPerimeter=0;" parent="1" source="1e91aIiLgdulqI0LddCd-49" target="1e91aIiLgdulqI0LddCd-58" edge="1">
          <mxGeometry relative="1" as="geometry">
            <Array as="points">
              <mxPoint x="-40" y="537" />
              <mxPoint x="-40" y="537" />
            </Array>
          </mxGeometry>
        </mxCell>
        <mxCell id="UiNQY2pJxulWzedXnI5g-1" value="Library" style="ellipse;shape=cloud;whiteSpace=wrap;html=1;" parent="1" vertex="1">
          <mxGeometry x="-486" y="-9" width="120" height="80" as="geometry" />
        </mxCell>
        <mxCell id="UiNQY2pJxulWzedXnI5g-2" value="Mode" style="shape=offPageConnector;whiteSpace=wrap;html=1;" parent="1" vertex="1">
          <mxGeometry x="-466" y="91" width="80" height="80" as="geometry" />
        </mxCell>
        <mxCell id="UiNQY2pJxulWzedXnI5g-3" value="Module" style="rounded=0;whiteSpace=wrap;html=1;" parent="1" vertex="1">
          <mxGeometry x="-470.5" y="191" width="89" height="60" as="geometry" />
        </mxCell>
        <mxCell id="UiNQY2pJxulWzedXnI5g-4" value="Data" style="text;strokeColor=none;fillColor=none;align=center;verticalAlign=middle;whiteSpace=wrap;rounded=0;html=1;" parent="1" vertex="1">
          <mxGeometry x="-360" y="107" width="130" height="48" as="geometry" />
        </mxCell>
        <mxCell id="UiNQY2pJxulWzedXnI5g-5" value="File" style="shape=cylinder3;whiteSpace=wrap;html=1;boundedLbl=1;backgroundOutline=1;size=15;" parent="1" vertex="1">
          <mxGeometry x="-340" y="-19" width="90" height="100" as="geometry" />
        </mxCell>
        <mxCell id="UiNQY2pJxulWzedXnI5g-6" value="&lt;font style=&quot;font-size: 17px;&quot;&gt;&lt;b&gt;Legenda&lt;/b&gt;&lt;/font&gt;" style="text;html=1;strokeColor=none;fillColor=none;align=center;verticalAlign=middle;whiteSpace=wrap;rounded=0;" parent="1" vertex="1">
          <mxGeometry x="-477" y="-39" width="60" height="30" as="geometry" />
        </mxCell>
        <mxCell id="MsXNKxyrm7HTchD_hshc-11" style="edgeStyle=orthogonalEdgeStyle;rounded=0;orthogonalLoop=1;jettySize=auto;html=1;entryX=0.5;entryY=1;entryDx=0;entryDy=0;" edge="1" parent="1" source="MsXNKxyrm7HTchD_hshc-2" target="MsXNKxyrm7HTchD_hshc-8">
          <mxGeometry relative="1" as="geometry" />
        </mxCell>
        <mxCell id="MsXNKxyrm7HTchD_hshc-28" style="edgeStyle=orthogonalEdgeStyle;rounded=0;orthogonalLoop=1;jettySize=auto;html=1;entryX=0.5;entryY=0;entryDx=0;entryDy=0;" edge="1" parent="1" source="MsXNKxyrm7HTchD_hshc-2" target="1e91aIiLgdulqI0LddCd-107">
          <mxGeometry relative="1" as="geometry">
            <mxPoint x="820" y="160" as="targetPoint" />
            <Array as="points">
              <mxPoint x="568" y="130" />
              <mxPoint x="830" y="130" />
            </Array>
          </mxGeometry>
        </mxCell>
        <mxCell id="MsXNKxyrm7HTchD_hshc-2" value="&lt;b style=&quot;font-size: 17px;&quot;&gt;&lt;font style=&quot;font-size: 17px;&quot;&gt;Arezzo&lt;/font&gt;&lt;/b&gt;" style="ellipse;whiteSpace=wrap;html=1;aspect=fixed;fontSize=17;" vertex="1" parent="1">
          <mxGeometry x="528" y="22" width="80" height="80" as="geometry" />
        </mxCell>
        <mxCell id="MsXNKxyrm7HTchD_hshc-17" style="edgeStyle=orthogonalEdgeStyle;rounded=0;orthogonalLoop=1;jettySize=auto;html=1;entryX=1;entryY=0.5;entryDx=0;entryDy=0;" edge="1" parent="1" source="MsXNKxyrm7HTchD_hshc-5" target="MsXNKxyrm7HTchD_hshc-2">
          <mxGeometry relative="1" as="geometry">
            <mxPoint x="618" y="74" as="targetPoint" />
            <Array as="points">
              <mxPoint x="772" y="62" />
            </Array>
          </mxGeometry>
        </mxCell>
        <mxCell id="MsXNKxyrm7HTchD_hshc-5" value="Configurater" style="rounded=0;whiteSpace=wrap;html=1;labelBackgroundColor=none;" vertex="1" parent="1">
          <mxGeometry x="712" y="-58" width="120" height="60" as="geometry" />
        </mxCell>
        <mxCell id="MsXNKxyrm7HTchD_hshc-6" style="edgeStyle=orthogonalEdgeStyle;rounded=0;orthogonalLoop=1;jettySize=auto;html=1;entryX=1;entryY=0.5;entryDx=0;entryDy=0;" edge="1" parent="1" source="MsXNKxyrm7HTchD_hshc-7" target="MsXNKxyrm7HTchD_hshc-5">
          <mxGeometry relative="1" as="geometry" />
        </mxCell>
        <mxCell id="MsXNKxyrm7HTchD_hshc-7" value="Configuration file (.toml)" style="shape=cylinder3;whiteSpace=wrap;html=1;boundedLbl=1;backgroundOutline=1;size=15;" vertex="1" parent="1">
          <mxGeometry x="892" y="-78" width="90" height="100" as="geometry" />
        </mxCell>
        <mxCell id="MsXNKxyrm7HTchD_hshc-12" style="edgeStyle=orthogonalEdgeStyle;rounded=0;orthogonalLoop=1;jettySize=auto;html=1;entryX=0;entryY=0.5;entryDx=0;entryDy=0;" edge="1" parent="1" source="MsXNKxyrm7HTchD_hshc-8" target="MsXNKxyrm7HTchD_hshc-5">
          <mxGeometry relative="1" as="geometry">
            <mxPoint x="674" y="-28" as="targetPoint" />
          </mxGeometry>
        </mxCell>
        <mxCell id="MsXNKxyrm7HTchD_hshc-8" value="Args" style="text;html=1;strokeColor=none;fillColor=none;align=center;verticalAlign=middle;whiteSpace=wrap;rounded=0;" vertex="1" parent="1">
          <mxGeometry x="538" y="-43" width="60" height="30" as="geometry" />
        </mxCell>
        <mxCell id="MsXNKxyrm7HTchD_hshc-27" style="edgeStyle=orthogonalEdgeStyle;rounded=0;orthogonalLoop=1;jettySize=auto;html=1;entryX=0.99;entryY=0.372;entryDx=0;entryDy=0;entryPerimeter=0;" edge="1" parent="1" source="MsXNKxyrm7HTchD_hshc-2" target="1e91aIiLgdulqI0LddCd-27">
          <mxGeometry relative="1" as="geometry" />
        </mxCell>
        <mxCell id="MsXNKxyrm7HTchD_hshc-29" value="" style="endArrow=classic;html=1;rounded=0;entryX=0.5;entryY=0;entryDx=0;entryDy=0;" edge="1" parent="1" target="1e91aIiLgdulqI0LddCd-37">
          <mxGeometry width="50" height="50" relative="1" as="geometry">
            <mxPoint x="490" y="62" as="sourcePoint" />
            <mxPoint x="-120" as="targetPoint" />
            <Array as="points">
              <mxPoint x="490" />
              <mxPoint x="-121" />
            </Array>
          </mxGeometry>
        </mxCell>
      </root>
    </mxGraphModel>
  </diagram>
</mxfile>
